<svg width="90" height="48" viewBox="0 0 90 48" fill="none" xmlns="http://www.w3.org/2000/svg">
<g clip-path="url(#clip0_89_470)">
<path d="M0 17.9171C0 16.0916 1.54125 14.5389 3.35345 14.5389C5.16565 14.5389 6.7069 16.0916 6.7069 17.9171C6.7069 19.7427 5.2114 21.3414 3.35345 21.3414C1.49551 21.3414 0 19.6966 0 17.9171Z" fill="#F05323"/>
<path d="M6.34446 26.6125C6.34446 24.9357 4.9951 23.5764 3.33058 23.5764C1.66606 23.5764 0.316696 24.9357 0.316696 26.6125V44.9639C0.316696 46.6407 1.66606 48 3.33058 48C4.9951 48 6.34446 46.6407 6.34446 44.9639V26.6125Z" fill="white"/>
<path d="M12.0995 35.4C12.0995 28.1864 17.2652 23.1208 24.1533 23.1208C31.0414 23.1208 36.2071 28.1881 36.2071 35.4V44.9638C36.2071 46.6405 34.8576 48 33.1932 48H32.8765C31.2121 48 29.8626 46.6405 29.8626 44.9638V35.4C29.8626 31.7028 27.5507 29.5103 24.1533 29.5103C20.7559 29.5103 18.444 31.701 18.444 35.4V44.9638C18.444 46.6405 17.0945 48 15.4301 48H15.1134C13.449 48 12.0995 46.6405 12.0995 44.9638V35.4Z" fill="white"/>
<path d="M89.7391 4.66317V26.4548C89.7391 29.0301 87.6665 31.1179 85.1101 31.1179C82.5537 31.1179 80.4811 29.0301 80.4811 26.4548V13.9913C80.4811 11.416 78.4085 9.32811 75.8521 9.32811H55.8686C53.3121 9.32811 51.2395 11.416 51.2395 13.9913V34.0087C51.2395 36.584 53.3121 38.6719 55.8686 38.6719H68.2778C70.8342 38.6719 72.9068 40.7598 72.9068 43.335C72.9068 45.9103 70.8342 47.9982 68.2778 47.9982H46.6088C44.0523 47.9982 41.9797 45.9103 41.9797 43.335V4.66317C41.9797 2.08788 44.0523 0 46.6088 0H85.1119C87.6683 0 89.7409 2.08788 89.7409 4.66317H89.7391Z" fill="white"/>
<path d="M83.7624 48C87.0633 48 89.7391 45.3044 89.7391 41.9792C89.7391 38.654 87.0633 35.9584 83.7624 35.9584C80.4615 35.9584 77.7856 38.654 77.7856 41.9792C77.7856 45.3044 80.4615 48 83.7624 48Z" fill="#F05323"/>
</g>
<defs>
<clipPath id="clip0_89_470">
<rect width="89.7391" height="48" fill="white"/>
</clipPath>
</defs>
</svg>
